# xmcd CD database file
#
# Track frame offsets:
#	151
#	30319
#	51576
#	67560
#	83632
#	105694
#	126419
#	135860
#	155528
#	173264
#	188616
#	205434
#	224091
#
# Disc length: 3235 seconds
#
# Revision: 0
# Processed by: cddbd v1.5.1PL0 Copyright (c) Steve Scherf et al.
# Submitted via: CDex 1.50beta10
#
DISCID=aa0ca10d
DTITLE=Big Boy Henry - Beaufort Blues
DYEAR=2002
DGENRE=Blues
TTITLE0=John Henry
TTITLE1=Old Bill
TTITLE2=Gulf Of Mexico
TTITLE3=Moan and Cry
TTITLE4=Climbin' On Top Of The Hill
TTITLE5=Tell Me What To Do
TTITLE6=Nina Mae
TTITLE7=Turn The Key
TTITLE8=Beautiful City
TTITLE9=Walkin' Night and Day
TTITLE10=Vellevina
TTITLE11=Cedar Street Woman
TTITLE12=Mr. Ball's Warehouse
EXTD=YEAR: 2002
EXTT0=
EXTT1=
EXTT2=
EXTT3=
EXTT4=
EXTT5=
EXTT6=
EXTT7=
EXTT8=
EXTT9=
EXTT10=
EXTT11=
EXTT12=
PLAYORDER=
